<svg width="638" height="789" viewBox="0 0 638 789" fill="none" xmlns="http://www.w3.org/2000/svg">
<path d="M268 -11H638V789H388C321.726 789 268 735.274 268 669V-11Z" fill="#F9BDBD"/>
<g filter="url(#filter0_d)">
<path d="M8.5 412.238H109.905C153.811 412.238 189.405 447.831 189.405 491.738V570.405H88C44.0934 570.405 8.5 534.811 8.5 490.905V412.238Z" stroke="#894242" stroke-opacity="0.2"/>
</g>
<g filter="url(#filter1_d)">
<path d="M208.595 589.595H310C353.907 589.595 389.5 625.189 389.5 669.095V747.762H288.095C244.189 747.762 208.595 712.169 208.595 668.262V589.595Z" stroke="#894242" stroke-opacity="0.2"/>
</g>
<g filter="url(#filter2_d)">
<path d="M208.595 469C208.595 425.093 244.189 389.5 288.095 389.5H366.762V490.905C366.762 534.811 331.169 570.405 287.262 570.405H208.595V469Z" stroke="#894242" stroke-opacity="0.2"/>
</g>
<g filter="url(#filter3_d)">
<path d="M31.238 669.095C31.238 625.189 66.8314 589.595 110.738 589.595H189.405V691C189.405 734.907 153.811 770.5 109.905 770.5H31.238V669.095Z" stroke="#894242" stroke-opacity="0.2"/>
</g>
<defs>
<filter id="filter0_d" x="0" y="403.738" width="197.905" height="175.167" filterUnits="userSpaceOnUse" color-interpolation-filters="sRGB">
<feFlood flood-opacity="0" result="BackgroundImageFix"/>
<feColorMatrix in="SourceAlpha" type="matrix" values="0 0 0 0 0 0 0 0 0 0 0 0 0 0 0 0 0 0 127 0"/>
<feOffset/>
<feGaussianBlur stdDeviation="4"/>
<feColorMatrix type="matrix" values="0 0 0 0 0 0 0 0 0 0 0 0 0 0 0 0 0 0 0.15 0"/>
<feBlend mode="normal" in2="BackgroundImageFix" result="effect1_dropShadow"/>
<feBlend mode="normal" in="SourceGraphic" in2="effect1_dropShadow" result="shape"/>
</filter>
<filter id="filter1_d" x="200.095" y="581.095" width="197.905" height="175.167" filterUnits="userSpaceOnUse" color-interpolation-filters="sRGB">
<feFlood flood-opacity="0" result="BackgroundImageFix"/>
<feColorMatrix in="SourceAlpha" type="matrix" values="0 0 0 0 0 0 0 0 0 0 0 0 0 0 0 0 0 0 127 0"/>
<feOffset/>
<feGaussianBlur stdDeviation="4"/>
<feColorMatrix type="matrix" values="0 0 0 0 0 0 0 0 0 0 0 0 0 0 0 0 0 0 0.15 0"/>
<feBlend mode="normal" in2="BackgroundImageFix" result="effect1_dropShadow"/>
<feBlend mode="normal" in="SourceGraphic" in2="effect1_dropShadow" result="shape"/>
</filter>
<filter id="filter2_d" x="200.095" y="381" width="175.167" height="197.905" filterUnits="userSpaceOnUse" color-interpolation-filters="sRGB">
<feFlood flood-opacity="0" result="BackgroundImageFix"/>
<feColorMatrix in="SourceAlpha" type="matrix" values="0 0 0 0 0 0 0 0 0 0 0 0 0 0 0 0 0 0 127 0"/>
<feOffset/>
<feGaussianBlur stdDeviation="4"/>
<feColorMatrix type="matrix" values="0 0 0 0 0 0 0 0 0 0 0 0 0 0 0 0 0 0 0.15 0"/>
<feBlend mode="normal" in2="BackgroundImageFix" result="effect1_dropShadow"/>
<feBlend mode="normal" in="SourceGraphic" in2="effect1_dropShadow" result="shape"/>
</filter>
<filter id="filter3_d" x="22.738" y="581.095" width="175.167" height="197.905" filterUnits="userSpaceOnUse" color-interpolation-filters="sRGB">
<feFlood flood-opacity="0" result="BackgroundImageFix"/>
<feColorMatrix in="SourceAlpha" type="matrix" values="0 0 0 0 0 0 0 0 0 0 0 0 0 0 0 0 0 0 127 0"/>
<feOffset/>
<feGaussianBlur stdDeviation="4"/>
<feColorMatrix type="matrix" values="0 0 0 0 0 0 0 0 0 0 0 0 0 0 0 0 0 0 0.15 0"/>
<feBlend mode="normal" in2="BackgroundImageFix" result="effect1_dropShadow"/>
<feBlend mode="normal" in="SourceGraphic" in2="effect1_dropShadow" result="shape"/>
</filter>
</defs>
</svg>
