<svg width="238" height="177" viewBox="0 0 238 177" fill="none" xmlns="http://www.w3.org/2000/svg">
<path d="M64.8348 107.34C66.3708 107.34 67.5228 107.692 68.2908 108.396C69.0588 109.1 69.4428 110.092 69.4428 111.372C69.4428 114.124 67.9068 115.5 64.8348 115.5H32.7708C29.6348 115.5 28.0668 114.124 28.0668 111.372C28.0668 110.092 28.4508 109.1 29.2188 108.396C30.0508 107.692 31.2348 107.34 32.7708 107.34H43.8108V59.436L33.9228 65.676C33.2828 66.06 32.6428 66.252 32.0028 66.252C30.9148 66.252 29.9548 65.772 29.1228 64.812C28.3548 63.852 27.9708 62.764 27.9708 61.548C27.9708 60.076 28.6108 58.924 29.8907 58.092L44.6748 48.684C46.1468 47.788 47.5548 47.34 48.8988 47.34C50.3068 47.34 51.4588 47.788 52.3548 48.684C53.2508 49.58 53.6988 50.796 53.6988 52.332V107.34H64.8348Z" fill="#F9BDBD" fill-opacity="0.25"/>
<path d="M113.194 21.2903H66.7421V52.2579H113.194V21.2903Z" fill="#F9BDBD"/>
<path d="M173.193 11.6127H64.8066C61.6054 11.6127 59 14.2181 59 17.4193V89.032C59 92.2332 61.6054 94.8386 64.8066 94.8386H97.7096V104.516H88.032V108.387H149.968V104.516H140.29V94.8386H173.193C176.395 94.8386 179 92.2332 179 89.032V17.4193C179 14.2181 176.395 11.6127 173.193 11.6127ZM64.8066 15.4838H173.194C174.262 15.4838 175.129 16.3528 175.129 17.4193V77.4193H62.871V17.4193C62.871 16.3528 63.738 15.4838 64.8066 15.4838ZM136.419 104.516H101.581V94.8386H136.419V104.516ZM173.193 90.9676H64.8066C63.738 90.9676 62.871 90.0986 62.871 89.032V81.2903H175.129V89.0324C175.129 90.0986 174.262 90.9676 173.193 90.9676Z" fill="#333333"/>
<path d="M126.969 58.0644H132.549V58.4205C130.301 59.2216 128.678 61.351 128.678 63.871C128.678 67.0722 131.283 69.6776 134.484 69.6776C137.004 69.6776 139.133 68.0538 139.935 65.8065H156.133C156.934 68.0538 159.063 69.6776 161.583 69.6776C164.784 69.6776 167.39 67.0722 167.39 63.871C167.39 61.351 165.766 59.222 163.519 58.4205V58.0644H169.141L171.464 34.8386H130.613V38.7096H167.184L165.635 54.1934H130.386L126.515 23.2258H119V27.0969H123.097L126.969 58.0644ZM156.13 61.9355H139.932C139.348 60.2963 138.057 59.005 136.417 58.4205V58.0644H159.643V58.4205C158.006 59.005 156.715 60.2963 156.13 61.9355ZM134.484 65.8065C133.415 65.8065 132.548 64.9375 132.548 63.871C132.548 62.8045 133.415 61.9355 134.484 61.9355C135.552 61.9355 136.419 62.8045 136.419 63.871C136.419 64.9375 135.552 65.8065 134.484 65.8065ZM161.581 65.8065C160.512 65.8065 159.645 64.9375 159.645 63.871C159.645 62.8045 160.512 61.9355 161.581 61.9355C162.649 61.9355 163.516 62.8045 163.516 63.871C163.516 64.9375 162.649 65.8065 161.581 65.8065Z" fill="#333333"/>
<path d="M163.516 44.5162H132.548V48.3873H163.516V44.5162Z" fill="#333333"/>
<path d="M113.194 58.0645H66.7421V61.9355H113.194V58.0645Z" fill="#333333"/>
<path d="M113.194 67.7421H66.7421V71.6131H113.194V67.7421Z" fill="#333333"/>
</svg>
