<svg width="238" height="177" viewBox="0 0 238 177" fill="none" xmlns="http://www.w3.org/2000/svg">
<path d="M77.5068 111.84C79.0428 111.84 80.1948 112.192 80.9628 112.896C81.7948 113.6 82.2108 114.592 82.2108 115.872C82.2108 118.624 80.6428 120 77.5068 120H40.4508C39.0428 120 37.9228 119.616 37.0908 118.848C36.3228 118.016 35.9388 116.992 35.9388 115.776C35.9388 114.304 36.5148 112.96 37.6668 111.744L60.2268 87.072C63.2348 83.808 65.4108 80.832 66.7548 78.144C68.0988 75.456 68.7708 72.8 68.7708 70.176C68.7708 66.784 67.7788 64.192 65.7948 62.4C63.8748 60.544 61.1228 59.616 57.5388 59.616C52.0988 59.616 46.6908 61.696 41.3148 65.856C40.6108 66.304 40.0028 66.656 39.4908 66.912C39.0428 67.104 38.5628 67.2 38.0508 67.2C37.1548 67.2 36.3868 66.784 35.7468 65.952C35.1068 65.12 34.7868 64.128 34.7868 62.976C34.7868 61.376 35.4268 60.096 36.7068 59.136C39.3948 56.832 42.6268 55.008 46.4028 53.664C50.1788 52.256 53.9868 51.552 57.8268 51.552C64.1628 51.552 69.1868 53.184 72.8988 56.448C76.6748 59.648 78.5627 64 78.5627 69.504C78.5627 73.408 77.6988 77.12 75.9708 80.64C74.3068 84.16 71.4908 88.096 67.5228 92.448L49.3788 111.84H77.5068Z" fill="#F9BDBD" fill-opacity="0.25"/>
<path d="M109.323 94.8387V1.93549H86.0968V94.8387V98.7097V118.065H151.903V94.8387H109.323Z" fill="#F7DEA6"/>
<path d="M111.258 92.9032V0H84.1613V120H153.839V92.9032H111.258ZM107.387 3.87097V94.0374L93.7013 107.723L96.438 110.46L110.124 96.7742H149.968V104.516H111.258V116.129H90.769L93.2716 113.626L90.5348 110.89L88.0322 113.392V98.7097H101.581V94.8387H88.0322V90.9677H93.8387V87.0968H88.0322V83.2258H101.581V79.3548H88.0322V75.4839H93.8387V71.6129H88.0322V67.7419H101.581V63.871H88.0322V60H93.8387V56.129H88.0322V52.2581H101.581V48.3871H88.0322V44.5161H93.8387V40.6452H88.0322V36.7742H101.581V32.9032H88.0322V29.0323H93.8387V25.1613H88.0322V3.87097H107.387ZM122.871 108.387H126.742V116.129H122.871V108.387ZM119 116.129H115.129V108.387H119V116.129ZM130.613 108.387H134.484V116.129H130.613V108.387ZM138.355 108.387H142.226V116.129H138.355V108.387ZM146.097 116.129V108.387H149.968V116.129H146.097Z" fill="#333333"/>
<path d="M97.7097 19.3548C100.911 19.3548 103.516 16.7497 103.516 13.5484C103.516 10.3471 100.911 7.74194 97.7097 7.74194C94.5084 7.74194 91.9032 10.3471 91.9032 13.5484C91.9032 16.7497 94.5084 19.3548 97.7097 19.3548ZM97.7097 11.6129C98.778 11.6129 99.6451 12.48 99.6451 13.5484C99.6451 14.6168 98.778 15.4839 97.7097 15.4839C96.6413 15.4839 95.7742 14.6168 95.7742 13.5484C95.7742 12.48 96.6413 11.6129 97.7097 11.6129Z" fill="#333333"/>
</svg>
