<svg width="238" height="177" viewBox="0 0 238 177" fill="none" xmlns="http://www.w3.org/2000/svg">
<path d="M58.7148 85.748C62.8108 86.9 65.9148 88.884 68.0268 91.7C70.1388 94.452 71.1948 97.94 71.1948 102.164C71.1948 108.052 69.1148 112.692 64.9548 116.084C60.8588 119.476 55.2908 121.172 48.2508 121.172C44.0908 121.172 40.0908 120.5 36.2508 119.156C32.4748 117.812 29.2748 115.956 26.6508 113.588C25.3708 112.564 24.7308 111.284 24.7308 109.748C24.7308 108.596 25.0508 107.636 25.6908 106.868C26.3308 106.036 27.0988 105.62 27.9948 105.62C28.9548 105.62 30.0428 106.036 31.2588 106.868C34.0108 108.916 36.6988 110.484 39.3228 111.572C42.0108 112.596 44.8908 113.108 47.9628 113.108C57.0508 113.108 61.5948 109.236 61.5948 101.492C61.5948 97.716 60.3788 94.9 57.9468 93.044C55.5788 91.124 51.9628 90.164 47.0988 90.164H41.8188C40.6028 90.164 39.6428 89.78 38.9388 89.012C38.2348 88.18 37.8828 87.22 37.8828 86.132C37.8828 85.108 38.2348 84.212 38.9388 83.444C39.6428 82.612 40.6028 82.196 41.8188 82.196H45.5627C50.2348 82.196 53.7868 81.236 56.2188 79.316C58.7148 77.332 59.9628 74.452 59.9628 70.676C59.9628 67.348 58.9388 64.756 56.8908 62.9C54.9068 61.044 52.0908 60.116 48.4427 60.116C43.0668 60.116 37.6908 62.196 32.3148 66.356C31.0988 67.188 30.0108 67.604 29.0508 67.604C28.1548 67.604 27.3868 67.22 26.7468 66.452C26.1068 65.62 25.7868 64.628 25.7868 63.476C25.7868 61.94 26.4268 60.66 27.7068 59.636C30.3308 57.268 33.4988 55.412 37.2108 54.068C40.9868 52.724 44.8588 52.052 48.8268 52.052C55.1628 52.052 60.1868 53.62 63.8988 56.756C67.6748 59.892 69.5627 64.148 69.5627 69.524C69.5627 73.364 68.6028 76.724 66.6828 79.604C64.8268 82.42 62.1708 84.468 58.7148 85.748Z" fill="#F9BDBD" fill-opacity="0.25"/>
<path d="M84.1613 46.4516C84.1613 58.2101 93.6931 67.742 105.452 67.742V25.1613C93.6931 25.1613 84.1613 34.6932 84.1613 46.4516Z" fill="#A8DCEC"/>
<path d="M171.258 65.8065H128.677V46.4517H171.258V65.8065Z" fill="#F9BDBD"/>
<path d="M163.516 32.9033H132.548V25.1613H163.516V32.9033Z" fill="#F7DEA6"/>
<path d="M173.194 38.7097H171.258V15.4839H78.3548V0H68.6774C63.3416 0 59 4.34161 59 9.67742V83.2258C59 88.5616 63.3416 92.9032 68.6774 92.9032H120.935V114.194C120.935 117.394 123.541 120 126.742 120H173.194C176.394 120 179 117.394 179 114.194V44.5161C179 41.3152 176.394 38.7097 173.194 38.7097ZM62.871 9.67742C62.871 6.4765 65.4765 3.87097 68.6774 3.87097H74.4839V73.5484H68.6774C66.5 73.5484 64.4889 74.2723 62.871 75.4876V9.67742ZM68.6774 89.0323C65.4765 89.0323 62.871 86.4267 62.871 83.2258C62.871 80.0249 65.4765 77.4193 68.6774 77.4193H78.3548V19.3548H167.387V38.7097H127.342C124.092 29.5218 115.311 23.2258 105.452 23.2258C92.6442 23.2258 82.2258 33.6442 82.2258 46.4516C82.2258 59.2591 92.6442 69.6774 105.452 69.6774C111.219 69.6774 116.716 67.5113 120.935 63.7377V89.0323H68.6774ZM120.935 44.5161H107.387V27.2055C114.682 27.9426 121.004 32.787 123.58 39.6585C121.99 40.6952 120.935 42.4824 120.935 44.5161ZM103.516 65.7082C93.7499 64.7338 86.0968 56.4693 86.0968 46.4516C86.0968 36.434 93.7499 28.1694 103.516 27.1951V65.7082ZM107.387 48.3871H120.935V58.022C117.676 62.3749 112.752 65.1468 107.387 65.6883V48.3871ZM175.129 114.194C175.129 115.26 174.26 116.129 173.194 116.129H126.742C125.676 116.129 124.806 115.26 124.806 114.194V44.5161C124.806 43.4501 125.676 42.5806 126.742 42.5806H173.194C174.26 42.5806 175.129 43.4501 175.129 44.5161V114.194Z" fill="black"/>
<path d="M159.645 112.258H171.258V100.645H159.645V112.258ZM163.516 104.516H167.387V108.387H163.516V104.516Z" fill="black"/>
<path d="M144.161 112.258H155.774V100.645H144.161V112.258ZM148.032 104.516H151.903V108.387H148.032V104.516Z" fill="black"/>
<path d="M128.677 112.258H140.29V100.645H128.677V112.258ZM132.548 104.516H136.419V108.387H132.548V104.516Z" fill="black"/>
<path d="M159.645 96.7742H171.258V85.1613H159.645V96.7742ZM163.516 89.0322H167.387V92.9032H163.516V89.0322Z" fill="black"/>
<path d="M144.161 96.7742H155.774V85.1613H144.161V96.7742ZM148.032 89.0322H151.903V92.9032H148.032V89.0322Z" fill="black"/>
<path d="M128.677 96.7742H140.29V85.1613H128.677V96.7742ZM132.548 89.0322H136.419V92.9032H132.548V89.0322Z" fill="black"/>
<path d="M159.645 81.2903H171.258V69.6774H159.645V81.2903ZM163.516 73.5484H167.387V77.4194H163.516V73.5484Z" fill="black"/>
<path d="M144.161 81.2903H155.774V69.6774H144.161V81.2903ZM148.032 73.5484H151.903V77.4194H148.032V73.5484Z" fill="black"/>
<path d="M128.677 81.2903H140.29V69.6774H128.677V81.2903ZM132.548 73.5484H136.419V77.4194H132.548V73.5484Z" fill="black"/>
<path d="M132.548 23.2258H163.516V27.0968H132.548V23.2258Z" fill="black"/>
<path d="M132.548 30.9677H163.516V34.8387H132.548V30.9677Z" fill="black"/>
<path d="M132.548 58.0645H167.387V61.9355H132.548V58.0645Z" fill="black"/>
</svg>
