<svg width="238" height="177" viewBox="0 0 238 177" fill="none" xmlns="http://www.w3.org/2000/svg">
<path d="M71.0028 97.612C74.1388 97.612 75.7068 98.924 75.7068 101.548C75.7068 104.172 74.1388 105.484 71.0028 105.484H64.8588V114.988C64.8588 116.588 64.4108 117.836 63.5148 118.732C62.6188 119.564 61.4348 119.98 59.9628 119.98C58.5548 119.98 57.4028 119.564 56.5068 118.732C55.6108 117.836 55.1628 116.588 55.1628 114.988V105.484H28.1868C26.7788 105.484 25.6908 105.1 24.9228 104.332C24.1548 103.564 23.7708 102.572 23.7708 101.356C23.7708 100.076 24.1868 98.828 25.0188 97.612L55.6428 53.548C56.6668 52.076 58.1068 51.34 59.9628 51.34C61.3068 51.34 62.4588 51.788 63.4188 52.684C64.3788 53.516 64.8588 54.732 64.8588 56.332V97.612H71.0028ZM55.1628 97.612V67.66L34.4268 97.612H55.1628Z" fill="#F9BDBD" fill-opacity="0.25"/>
<path d="M164.428 26.4387L163.516 26.2374V23.2258C163.516 11.4677 153.984 1.93549 142.226 1.93549C132.641 1.93549 124.549 8.27419 121.88 16.9839L119.728 16.5058C117.368 15.9813 115.129 17.7774 115.129 20.1948C115.129 21.9658 116.36 23.4987 118.088 23.8839L151.895 31.3974L155.987 32.3071L162.788 33.8187C165.148 34.3413 167.387 32.5452 167.387 30.1277C167.387 28.3568 166.156 26.8239 164.428 26.4387Z" fill="#A8DCEC"/>
<path d="M76.4194 56.129L80.1897 48.3871L76.4194 40.6452L85.0787 40.0065L89.9678 32.9032V1.93549H70.6129V118.065H89.9678V63.871L85.0787 56.7677L76.4194 56.129Z" fill="#F7DEA6"/>
<path d="M163.315 35.8103C163.417 35.8161 163.52 35.8432 163.621 35.8432C164.904 35.8432 166.158 35.4077 167.184 34.5852C168.544 33.4974 169.323 31.8716 169.323 30.1277C169.323 27.6426 167.755 25.5194 165.452 24.7374V23.2258C165.452 10.4187 155.033 0 142.226 0C132.651 0 124.079 5.95355 120.62 14.7213L120.146 14.6168C118.446 14.2374 116.691 14.6458 115.332 15.7374C113.972 16.8252 113.194 18.451 113.194 20.1948C113.194 22.68 114.761 24.8032 117.064 25.5852V32.9032C117.064 42.7839 123.275 51.2206 131.991 54.569C130.303 55.3645 128.697 56.3419 127.23 57.5168L124.127 60H110.61L109.626 55.4052C110.61 54.7026 111.258 53.5568 111.258 52.2581H119.757L118.801 49.411C117.597 45.7935 114.471 43.2368 110.784 42.6968C110.128 41.4813 108.86 40.6452 107.387 40.6452H99.6451C98.2187 40.6452 96.9838 41.429 96.3122 42.5806H91.9032C89.7684 42.5806 88.0322 44.3168 88.0322 46.4516V50.3226C88.0322 52.4574 89.7684 54.1935 91.9032 54.1935H96.3122C96.7148 54.8826 97.3148 55.4381 98.0445 55.7729L99.74 62.5568C98.4916 63.9329 97.7096 65.7406 97.7096 67.7419C97.7096 71.0961 99.8658 73.9297 102.854 75.0039L104.892 83.16C105.198 84.389 105.932 85.409 106.901 86.1077C105.961 87.9 105.452 89.88 105.452 91.9355V108.927L103.276 109.653C101.104 110.377 99.6451 112.401 99.6451 114.691C99.6451 117.619 102.026 120 104.954 120H128.677V119.923C129.272 119.865 129.864 119.777 130.446 119.644L152.972 114.445L154.977 117.455C156.039 119.048 157.818 120 159.734 120C162.887 120 165.452 117.435 165.452 114.283V102.581C165.452 99.3793 162.846 96.7742 159.645 96.7742H153.788C155.017 95.1523 155.774 93.1548 155.774 90.9677V60H155.745C155.639 57.0581 153.949 54.5419 151.499 53.2316C157.849 49.7187 162.37 43.3161 163.315 35.8103ZM142.226 3.87097C152.898 3.87097 161.581 12.5535 161.581 23.2258V23.8239L124.458 15.5748C127.479 8.58 134.455 3.87097 142.226 3.87097ZM120.935 32.9032V26.4987L136.419 29.94V36.7742H140.29C141.359 36.7742 142.226 37.6413 142.226 38.7097C142.226 39.7781 141.359 40.6452 140.29 40.6452H136.419V51.8671C127.595 50.069 120.935 42.2497 120.935 32.9032ZM130.886 59.6342C132.38 58.6161 134.002 57.8071 135.705 57.2245L130.886 59.6342ZM103.185 60.3774L102.123 56.129H105.823L106.652 60H105.452C104.658 60 103.907 60.1548 103.185 60.3774ZM111.258 48.3871V46.7981C112.222 47.1213 113.101 47.6497 113.792 48.3871H111.258ZM99.6451 44.5161H107.387L107.391 52.2581H99.6451V44.5161ZM91.9032 46.4516H95.7742V50.3226H91.9032V46.4516ZM105.452 63.871H129.417L133.288 71.6129H105.452C103.317 71.6129 101.581 69.8768 101.581 67.7419C101.581 65.6071 103.317 63.871 105.452 63.871ZM115.319 98.6284C113.929 100.848 113.194 103.411 113.194 106.032C113.194 106.835 113.277 107.619 113.408 108.387H109.323V91.9355C109.323 90.1606 109.859 88.4555 110.859 87.0039C112.607 86.6864 114.055 85.5019 114.724 83.9032C117.361 82.831 120.481 83.1387 122.869 84.7219V86.5432L115.319 98.6284ZM114.856 79.8116L113.929 75.4839H122.871V80.3574C120.343 79.3316 117.494 79.1516 114.856 79.8116ZM109.969 75.4839L111.227 81.3503C111.248 81.4452 111.258 81.5419 111.258 81.6368V81.9019C111.258 82.6316 110.664 83.2258 109.932 83.2258C109.324 83.2258 108.794 82.8116 108.645 82.2213L106.963 75.4839H109.969ZM126.742 75.4839H136.921L151.644 67.3026C151.735 67.2523 151.814 67.1884 151.903 67.1342V85.1613H126.742V75.4839ZM104.954 116.129C104.161 116.129 103.516 115.485 103.516 114.691C103.516 114.072 103.911 113.522 104.501 113.325L107.701 112.258H114.68C115.41 113.712 116.383 115.018 117.556 116.129H104.954ZM161.581 102.581V114.283C161.581 115.301 160.752 116.129 159.734 116.129C159.115 116.129 158.542 115.823 158.197 115.306L155.774 111.674V100.645H159.645C160.714 100.645 161.581 101.512 161.581 102.581ZM138.355 100.645H146.097H151.903V110.717L129.577 115.87C128.832 116.042 128.07 116.129 127.162 116.129C121.594 116.129 117.064 111.6 117.064 106.032C117.064 104.137 117.595 102.285 118.599 100.68L125.879 89.0323H151.903V90.9677C151.903 94.169 149.298 96.7742 146.097 96.7742H138.355H130.613V100.645H138.355ZM149.766 63.9194L137.248 70.8735L133.21 62.7987L145.671 56.5664C146.25 56.28 146.894 56.129 147.535 56.129H147.746C150.039 56.129 151.903 57.9929 151.903 60.2845C151.903 61.7961 151.084 63.1858 149.766 63.9194ZM140.29 52.2581V44.5161C143.492 44.5161 146.097 41.911 146.097 38.7097C146.097 35.5084 143.492 32.9032 140.29 32.9032V30.8013L151.475 33.2864L152.315 29.5065L118.508 21.9929C117.67 21.809 117.064 21.0523 117.064 20.1948C117.064 19.6335 117.316 19.1071 117.754 18.7568C118.191 18.4065 118.758 18.2729 119.308 18.3968L164.008 28.3297C164.846 28.5135 165.452 29.2703 165.452 30.1277C165.452 30.689 165.2 31.2155 164.763 31.5658C164.325 31.9161 163.756 32.0477 163.208 31.9258L156.407 30.4161L155.567 34.1961L159.514 35.0729C158.432 44.7252 150.227 52.2581 140.29 52.2581Z" fill="#333333"/>
<path d="M93.2638 55.6703L89.9677 60.4568L86.1451 54.9058L79.4096 54.4084L82.3438 48.3871L79.4096 42.3658L86.1451 41.8684L89.9677 36.3174L93.2638 41.1058L96.4496 38.909L91.9032 32.3013V0H68.6774V120H91.9032V64.4729L96.4516 57.8671L93.2638 55.6703ZM72.5483 116.129V3.87097H88.0322V32.3013L84.0103 38.1445L73.429 38.9245L78.0374 48.3871L73.429 57.8497L84.0103 58.6297L88.0322 64.4729V116.129H72.5483Z" fill="#333333"/>
<path d="M128.677 30.9677H124.806V34.8387H128.677V30.9677Z" fill="#333333"/>
<path d="M80.2903 7.74194H76.4193V23.2258H80.2903V7.74194Z" fill="#333333"/>
<path d="M80.2903 27.0968H76.4193V30.9678H80.2903V27.0968Z" fill="#333333"/>
<path d="M84.1613 65.8065H80.2903V81.2903H84.1613V65.8065Z" fill="#333333"/>
<path d="M80.2903 100.645H76.4193V112.258H80.2903V100.645Z" fill="#333333"/>
</svg>
