<svg width="20" height="19" viewBox="0 0 20 19" fill="none" xmlns="http://www.w3.org/2000/svg">
<path d="M9.29894 1.54839C9.5983 0.627079 10.9017 0.627078 11.2011 1.54839L12.7197 6.22215C12.8535 6.63417 13.2375 6.91313 13.6707 6.91313H18.585C19.5537 6.91313 19.9565 8.15275 19.1728 8.72215L15.197 11.6107C14.8466 11.8653 14.6999 12.3167 14.8338 12.7287L16.3524 17.4025C16.6517 18.3238 15.5972 19.0899 14.8135 18.5205L10.8378 15.632C10.4873 15.3773 10.0127 15.3773 9.66221 15.632L5.68648 18.5205C4.90276 19.0899 3.84828 18.3238 4.14763 17.4025L5.66623 12.7287C5.80011 12.3167 5.65345 11.8653 5.30296 11.6107L1.32722 8.72215C0.543507 8.15275 0.946283 6.91313 1.91501 6.91313H6.82929C7.26252 6.91313 7.64647 6.63417 7.78035 6.22215L9.29894 1.54839Z" fill="#FFC107"/>
</svg>
